# This file uses centimeters as units for non-parametric coordinates.

mtllib PineconeLowRes.mtl
g default
v 0.262486 1.903683 -1.684882
v -0.262486 1.903683 -1.684882
v -0.524971 1.452274 -1.738978
v -0.262486 1.000865 -1.793074
v 0.262486 1.000865 -1.793074
v 0.524971 1.452274 -1.738978
v 0.515044 2.257098 -0.931744
v -0.515043 2.257098 -0.931744
v -1.030087 1.371354 -1.037890
v -0.515044 0.485610 -1.144037
v 0.515044 0.485610 -1.144037
v 1.030087 1.371354 -1.037890
v 0.663772 2.354661 0.136798
v -0.663771 2.354661 0.136798
v -1.327543 1.213143 0.000000
v -0.663772 0.071624 -0.136798
v 0.663772 0.071624 -0.136798
v 1.327543 1.213142 -0.000000
v 0.599662 2.162017 0.811096
v -0.599661 2.162018 0.811096
v -1.199323 1.130752 0.687510
v -0.599662 0.099487 0.563925
v 0.599661 0.099487 0.563925
v 1.199323 1.130752 0.687510
v 0.346215 1.665840 1.262155
v -0.346215 1.665840 1.262155
v -0.692429 1.070438 1.190803
v -0.346215 0.475037 1.119451
v 0.346215 0.475037 1.119451
v 0.692429 1.070438 1.190803
v 0.000000 1.469011 -1.878644
v 0.000000 1.048362 1.375020
vt 0.001992 0.167995
vt 0.167995 0.167995
vt 0.333997 0.167995
vt 0.500000 0.167995
vt 0.666003 0.167995
vt 0.832005 0.167995
vt 0.998008 0.167995
vt 0.001992 0.333997
vt 0.167995 0.333997
vt 0.333997 0.333997
vt 0.500000 0.333997
vt 0.666003 0.333997
vt 0.832005 0.333997
vt 0.998008 0.333997
vt 0.001992 0.500000
vt 0.167995 0.500000
vt 0.333997 0.500000
vt 0.500000 0.500000
vt 0.666003 0.500000
vt 0.832005 0.500000
vt 0.998008 0.500000
vt 0.001992 0.666003
vt 0.167995 0.666003
vt 0.333997 0.666003
vt 0.500000 0.666003
vt 0.666003 0.666003
vt 0.832005 0.666003
vt 0.998008 0.666003
vt 0.001992 0.832005
vt 0.167995 0.832005
vt 0.333997 0.832005
vt 0.500000 0.832005
vt 0.666003 0.832005
vt 0.832005 0.832005
vt 0.998008 0.832005
vt 0.084993 0.001992
vt 0.250996 0.001992
vt 0.416999 0.001992
vt 0.583001 0.001992
vt 0.749004 0.001992
vt 0.915007 0.001992
vt 0.084993 0.998008
vt 0.250996 0.998008
vt 0.416999 0.998008
vt 0.583001 0.998008
vt 0.749004 0.998008
vt 0.915007 0.998008
vn 0.000000 0.905282 -0.424810
vn 0.000000 0.905282 -0.424810
vn 0.000000 0.905282 -0.424810
vn 0.000000 0.905282 -0.424810
vn -0.735372 0.484397 -0.473907
vn -0.735372 0.484397 -0.473907
vn -0.735372 0.484397 -0.473907
vn -0.735372 0.484397 -0.473907
vn -0.736808 -0.359846 -0.572385
vn -0.736808 -0.359846 -0.572385
vn -0.736808 -0.359846 -0.572385
vn -0.736808 -0.359846 -0.572385
vn -0.000000 -0.783203 -0.621766
vn -0.000000 -0.783203 -0.621766
vn -0.000000 -0.783203 -0.621766
vn -0.000000 -0.783203 -0.621766
vn 0.736808 -0.359846 -0.572385
vn 0.736808 -0.359846 -0.572385
vn 0.736808 -0.359846 -0.572385
vn 0.736808 -0.359846 -0.572385
vn 0.735372 0.484397 -0.473907
vn 0.735372 0.484397 -0.473907
vn 0.735372 0.484397 -0.473907
vn 0.735372 0.484397 -0.473907
vn 0.000000 0.995858 -0.090926
vn 0.000000 0.995858 -0.090926
vn 0.000000 0.995858 -0.090926
vn 0.000000 0.995858 -0.090926
vn -0.844084 0.510484 -0.164096
vn -0.844084 0.510484 -0.164096
vn -0.844084 0.510484 -0.164096
vn -0.844084 0.510484 -0.164096
vn -0.837853 -0.450195 -0.308752
vn -0.837853 -0.450195 -0.308752
vn -0.837853 -0.450195 -0.308752
vn -0.837853 -0.450195 -0.308752
vn 0.000000 -0.924923 -0.380154
vn 0.000000 -0.924923 -0.380154
vn 0.000000 -0.924923 -0.380154
vn 0.000000 -0.924923 -0.380154
vn 0.837852 -0.450195 -0.308752
vn 0.837853 -0.450195 -0.308752
vn 0.837853 -0.450195 -0.308752
vn 0.837852 -0.450195 -0.308752
vn 0.844085 0.510484 -0.164096
vn 0.844085 0.510484 -0.164096
vn 0.844085 0.510484 -0.164096
vn 0.844085 0.510484 -0.164096
vn 0.000000 0.961529 0.274704
vn 0.000000 0.961529 0.274704
vn 0.000000 0.961529 0.274704
vn 0.000000 0.961529 0.274704
vn -0.855100 0.471344 0.215961
vn -0.855100 0.471344 0.215961
vn -0.855100 0.471344 0.215961
vn -0.855100 0.471344 0.215961
vn -0.855100 -0.509025 0.098475
vn -0.855100 -0.509025 0.098475
vn -0.855100 -0.509026 0.098475
vn -0.855100 -0.509026 0.098475
vn -0.000000 -0.999210 0.039732
vn -0.000000 -0.999210 0.039732
vn -0.000000 -0.999210 0.039732
vn -0.000000 -0.999210 0.039732
vn 0.855100 -0.509026 0.098475
vn 0.855100 -0.509026 0.098475
vn 0.855100 -0.509026 0.098475
vn 0.855100 -0.509026 0.098475
vn 0.855100 0.471344 0.215961
vn 0.855100 0.471344 0.215961
vn 0.855100 0.471344 0.215961
vn 0.855100 0.471344 0.215961
vn 0.000000 0.672663 0.739949
vn 0.000000 0.672663 0.739949
vn 0.000000 0.672663 0.739949
vn 0.000000 0.672663 0.739949
vn -0.654654 0.297384 0.694976
vn -0.654654 0.297384 0.694976
vn -0.654654 0.297384 0.694976
vn -0.654654 0.297384 0.694976
vn -0.654654 -0.453175 0.605030
vn -0.654654 -0.453175 0.605030
vn -0.654654 -0.453175 0.605030
vn -0.654654 -0.453175 0.605030
vn -0.000000 -0.828454 0.560057
vn -0.000000 -0.828454 0.560057
vn -0.000000 -0.828454 0.560057
vn -0.000000 -0.828454 0.560057
vn 0.654654 -0.453175 0.605030
vn 0.654654 -0.453175 0.605030
vn 0.654654 -0.453175 0.605030
vn 0.654654 -0.453175 0.605030
vn 0.654654 0.297384 0.694976
vn 0.654654 0.297384 0.694976
vn 0.654654 0.297384 0.694976
vn 0.654654 0.297384 0.694976
vn 0.000000 0.407148 -0.913362
vn 0.000000 0.407148 -0.913362
vn 0.000000 0.407148 -0.913362
vn -0.255977 0.260409 -0.930947
vn -0.255977 0.260409 -0.930947
vn -0.255977 0.260409 -0.930947
vn -0.255977 -0.033067 -0.966117
vn -0.255977 -0.033067 -0.966117
vn -0.255977 -0.033067 -0.966117
vn -0.000000 -0.179806 -0.983702
vn -0.000000 -0.179806 -0.983702
vn -0.000000 -0.179806 -0.983702
vn 0.255977 -0.033067 -0.966117
vn 0.255977 -0.033067 -0.966117
vn 0.255977 -0.033067 -0.966117
vn 0.255977 0.260409 -0.930947
vn 0.255977 0.260409 -0.930947
vn 0.255977 0.260409 -0.930947
vn 0.000000 0.179806 0.983702
vn 0.000000 0.179806 0.983702
vn 0.000000 0.179806 0.983702
vn -0.255977 0.033068 0.966117
vn -0.255977 0.033068 0.966117
vn -0.255977 0.033068 0.966117
vn -0.255977 -0.260409 0.930947
vn -0.255977 -0.260409 0.930947
vn -0.255977 -0.260409 0.930947
vn -0.000000 -0.407148 0.913362
vn -0.000000 -0.407148 0.913362
vn -0.000000 -0.407148 0.913362
vn 0.255977 -0.260409 0.930947
vn 0.255977 -0.260409 0.930947
vn 0.255977 -0.260409 0.930947
vn 0.255977 0.033068 0.966117
vn 0.255977 0.033068 0.966117
vn 0.255977 0.033068 0.966117
s off
g pSphere1
usemtl initialShadingGroup
f 1/1/1 2/2/2 8/9/3 7/8/4
f 2/2/5 3/3/6 9/10/7 8/9/8
f 3/3/9 4/4/10 10/11/11 9/10/12
f 4/4/13 5/5/14 11/12/15 10/11/16
f 5/5/17 6/6/18 12/13/19 11/12/20
f 6/6/21 1/7/22 7/14/23 12/13/24
f 7/8/25 8/9/26 14/16/27 13/15/28
f 8/9/29 9/10/30 15/17/31 14/16/32
f 9/10/33 10/11/34 16/18/35 15/17/36
f 10/11/37 11/12/38 17/19/39 16/18/40
f 11/12/41 12/13/42 18/20/43 17/19/44
f 12/13/45 7/14/46 13/21/47 18/20/48
f 13/15/49 14/16/50 20/23/51 19/22/52
f 14/16/53 15/17/54 21/24/55 20/23/56
f 15/17/57 16/18/58 22/25/59 21/24/60
f 16/18/61 17/19/62 23/26/63 22/25/64
f 17/19/65 18/20/66 24/27/67 23/26/68
f 18/20/69 13/21/70 19/28/71 24/27/72
f 19/22/73 20/23/74 26/30/75 25/29/76
f 20/23/77 21/24/78 27/31/79 26/30/80
f 21/24/81 22/25/82 28/32/83 27/31/84
f 22/25/85 23/26/86 29/33/87 28/32/88
f 23/26/89 24/27/90 30/34/91 29/33/92
f 24/27/93 19/28/94 25/35/95 30/34/96
f 2/2/97 1/1/98 31/36/99
f 3/3/100 2/2/101 31/37/102
f 4/4/103 3/3/104 31/38/105
f 5/5/106 4/4/107 31/39/108
f 6/6/109 5/5/110 31/40/111
f 1/7/112 6/6/113 31/41/114
f 25/29/115 26/30/116 32/42/117
f 26/30/118 27/31/119 32/43/120
f 27/31/121 28/32/122 32/44/123
f 28/32/124 29/33/125 32/45/126
f 29/33/127 30/34/128 32/46/129
f 30/34/130 25/35/131 32/47/132
