# This file uses centimeters as units for non-parametric coordinates.

mtllib Sapling4.mtl
g default
v 3.592853 0.000000 12.460085
v -3.592853 0.000000 5.505544
v 3.592853 10.000000 12.460085
v -3.592853 10.000000 5.505544
v 0.000000 0.000000 13.982814
v 0.000000 0.000000 3.982814
v -0.000000 10.000000 13.982814
v -0.000000 10.000000 3.982814
v -5.000000 0.000000 8.982814
v 5.000000 0.000000 8.982814
v -5.000000 10.000000 8.982814
v 5.000000 10.000000 8.982814
v 3.451821 0.000000 5.365505
v -3.451821 0.000000 12.600124
v 3.451821 10.000000 5.365505
v -3.451821 10.000000 12.600124
v 4.785828 0.000000 10.430519
v -4.785828 0.000000 7.535110
v 4.785828 10.000000 10.430519
v -4.785828 10.000000 7.535110
v 2.288046 0.000000 13.428581
v -2.288046 0.000000 4.537048
v 2.288046 10.000000 13.428581
v -2.288046 10.000000 4.537048
v -4.445767 0.000000 11.270861
v 4.445767 0.000000 6.694768
v -4.445767 10.000000 11.270861
v 4.445767 10.000000 6.694768
v 1.413884 0.000000 4.186886
v -1.413884 0.000000 13.778743
v 1.413884 10.000000 4.186886
v -1.413884 10.000000 13.778743
vt -0.029764 0.000000
vt 0.970236 0.000000
vt -0.029764 1.000000
vt 0.970236 1.000000
vt -0.029764 0.000000
vt 0.970236 0.000000
vt 0.970236 1.000000
vt -0.029764 1.000000
vt -0.029764 0.000000
vt 0.970236 0.000000
vt 0.970236 1.000000
vt -0.029764 1.000000
vt -0.029764 0.000000
vt 0.970236 0.000000
vt 0.970236 1.000000
vt -0.029764 1.000000
vt -0.029764 0.000000
vt 0.970236 0.000000
vt 0.970236 1.000000
vt -0.029764 1.000000
vt -0.029764 0.000000
vt 0.970236 0.000000
vt 0.970236 1.000000
vt -0.029764 1.000000
vt -0.029764 0.000000
vt 0.970236 0.000000
vt 0.970236 1.000000
vt -0.029764 1.000000
vt -0.029764 0.000000
vt 0.970236 0.000000
vt 0.970236 1.000000
vt -0.029764 1.000000
vn 0.695454 0.000000 -0.718571
vn 0.695454 0.000000 -0.718571
vn 0.695454 0.000000 -0.718571
vn 0.695454 0.000000 -0.718571
vn 1.000000 0.000000 0.000000
vn 1.000000 0.000000 0.000000
vn 1.000000 0.000000 0.000000
vn 1.000000 0.000000 0.000000
vn 0.000000 -0.000000 1.000000
vn 0.000000 -0.000000 1.000000
vn 0.000000 -0.000000 1.000000
vn 0.000000 -0.000000 1.000000
vn -0.723462 0.000000 -0.690364
vn -0.723462 0.000000 -0.690364
vn -0.723462 0.000000 -0.690364
vn -0.723462 0.000000 -0.690364
vn 0.289541 0.000000 -0.957166
vn 0.289541 0.000000 -0.957166
vn 0.289541 0.000000 -0.957166
vn 0.289541 0.000000 -0.957166
vn 0.889153 0.000000 -0.457609
vn 0.889153 0.000000 -0.457609
vn 0.889153 0.000000 -0.457609
vn 0.889153 0.000000 -0.457609
vn 0.457609 0.000000 0.889153
vn 0.457609 0.000000 0.889153
vn 0.457609 0.000000 0.889153
vn 0.457609 0.000000 0.889153
vn -0.959186 0.000000 -0.282777
vn -0.959186 0.000000 -0.282777
vn -0.959186 0.000000 -0.282777
vn -0.959186 0.000000 -0.282777
s off
g polySurface1
usemtl lambert6SG
f 1/1/1 2/2/2 4/4/3 3/3/4
f 5/5/5 6/6/6 8/7/7 7/8/8
f 9/9/9 10/10/10 12/11/11 11/12/12
f 13/13/13 14/14/14 16/15/15 15/16/16
f 17/17/17 18/18/18 20/19/19 19/20/20
f 21/21/21 22/22/22 24/23/23 23/24/24
f 25/25/25 26/26/26 28/27/27 27/28/28
f 29/29/29 30/30/30 32/31/31 31/32/32
