# This file uses centimeters as units for non-parametric coordinates.

mtllib Sapling3.mtl
g default
v 3.592853 0.000000 -15.912991
v -3.592853 0.000000 -22.867533
v 3.592853 10.000000 -15.912991
v -3.592853 10.000000 -22.867533
v 0.000000 0.000000 -14.390262
v 0.000000 0.000000 -24.390262
v -0.000000 10.000000 -14.390262
v -0.000000 10.000000 -24.390262
v -5.000000 0.000000 -19.390262
v 5.000000 0.000000 -19.390262
v -5.000000 10.000000 -19.390262
v 5.000000 10.000000 -19.390262
v 3.451821 0.000000 -23.007572
v -3.451821 0.000000 -15.772953
v 3.451821 10.000000 -23.007572
v -3.451821 10.000000 -15.772953
vt -0.029764 0.000000
vt 0.970236 0.000000
vt -0.029764 1.000000
vt 0.970236 1.000000
vt -0.029764 0.000000
vt 0.970236 0.000000
vt 0.970236 1.000000
vt -0.029764 1.000000
vt -0.029764 0.000000
vt 0.970236 0.000000
vt 0.970236 1.000000
vt -0.029764 1.000000
vt -0.029764 0.000000
vt 0.970236 0.000000
vt 0.970236 1.000000
vt -0.029764 1.000000
vn 0.695454 0.000000 -0.718571
vn 0.695454 0.000000 -0.718571
vn 0.695454 0.000000 -0.718571
vn 0.695454 0.000000 -0.718571
vn 1.000000 0.000000 0.000000
vn 1.000000 0.000000 0.000000
vn 1.000000 0.000000 0.000000
vn 1.000000 0.000000 0.000000
vn 0.000000 0.000000 1.000000
vn 0.000000 0.000000 1.000000
vn 0.000000 0.000000 1.000000
vn 0.000000 0.000000 1.000000
vn -0.723462 0.000000 -0.690364
vn -0.723462 0.000000 -0.690364
vn -0.723462 0.000000 -0.690364
vn -0.723462 0.000000 -0.690364
s off
g polySurface2
usemtl lambert5SG
f 1/1/1 2/2/2 4/4/3 3/3/4
f 5/5/5 6/6/6 8/7/7 7/8/8
f 9/9/9 10/10/10 12/11/11 11/12/12
f 13/13/13 14/14/14 16/15/15 15/16/16
