# This file uses centimeters as units for non-parametric coordinates.

mtllib Sapling0.mtl
g default
v 3.592853 0.000000 3.474549
v -3.592853 0.000000 -3.479995
v 3.592853 10.000000 3.474549
v -3.592853 10.000000 -3.479995
v 0.000000 0.000000 4.997277
v 0.000000 0.000000 -5.002723
v -0.000000 10.000000 4.997277
v -0.000000 10.000000 -5.002723
v -5.000000 0.000000 -0.002723
v 5.000000 0.000000 -0.002723
v -5.000000 10.000000 -0.002723
v 5.000000 10.000000 -0.002723
v 3.451821 0.000000 -3.620033
v -3.451821 0.000000 3.614586
v 3.451821 10.000000 -3.620033
v -3.451821 10.000000 3.614586
vt -0.029764 0.000000
vt 0.970236 0.000000
vt -0.029764 1.000000
vt 0.970236 1.000000
vt -0.029764 0.000000
vt 0.970236 0.000000
vt 0.970236 1.000000
vt -0.029764 1.000000
vt -0.029764 0.000000
vt 0.970236 0.000000
vt 0.970236 1.000000
vt -0.029764 1.000000
vt -0.029764 0.000000
vt 0.970236 0.000000
vt 0.970236 1.000000
vt -0.029764 1.000000
vn 0.695454 0.000000 -0.718570
vn 0.695454 0.000000 -0.718570
vn 0.695454 0.000000 -0.718570
vn 0.695454 0.000000 -0.718570
vn 1.000000 0.000000 0.000000
vn 1.000000 0.000000 0.000000
vn 1.000000 0.000000 0.000000
vn 1.000000 0.000000 0.000000
vn 0.000000 0.000000 1.000000
vn 0.000000 0.000000 1.000000
vn 0.000000 0.000000 1.000000
vn 0.000000 0.000000 1.000000
vn -0.723462 0.000000 -0.690364
vn -0.723462 0.000000 -0.690364
vn -0.723462 0.000000 -0.690364
vn -0.723462 0.000000 -0.690364
s off
g polySurface5
usemtl lambert2SG
f 1/1/1 2/2/2 4/4/3 3/3/4
f 5/5/5 6/6/6 8/7/7 7/8/8
f 9/9/9 10/10/10 12/11/11 11/12/12
f 13/13/13 14/14/14 16/15/15 15/16/16
